<svg xmlns="http://www.w3.org/2000/svg" width="1200" height="320" viewBox="0 0 1200 320" role="img" aria-label="Bharat Gupta — Business, Data and Technology. Business Analysis, Data Analytics, Business Intelligence, Operations, AI and Automation.">
  <defs>
    <linearGradient id="rule" x1="0" y1="0" x2="1" y2="0">
      <stop offset="0" stop-color="#58A6FF"/>
      <stop offset="1" stop-color="#58A6FF" stop-opacity="0"/>
    </linearGradient>
  </defs>

  <rect x="0.5" y="0.5" width="1199" height="319" rx="14" fill="#0D1117" stroke="#30363D"/>

  <g font-family="-apple-system, BlinkMacSystemFont, 'Segoe UI', 'Helvetica Neue', Arial, sans-serif">
    <text x="64" y="104" fill="#58A6FF" font-size="15" font-weight="600" letter-spacing="3.4">BUSINESS &#183; DATA &#183; TECHNOLOGY</text>
    <text x="64" y="178" fill="#E6EDF3" font-size="58" font-weight="700" letter-spacing="-1">Bharat Gupta</text>
    <rect x="64" y="202" width="104" height="3" rx="1.5" fill="url(#rule)"/>
    <text x="64" y="246" fill="#8B949E" font-size="19" font-weight="400">Business Analysis &#183; Data Analytics &#183; Business Intelligence</text>
    <text x="64" y="274" fill="#8B949E" font-size="19" font-weight="400">Operations &#183; Digital Transformation &#183; AI &amp; Automation</text>
  </g>

  <g transform="translate(0,14)">
    <g fill="#58A6FF" opacity="0.18">
      <rect x="880" y="196" width="18" height="40" rx="4"/>
      <rect x="912" y="172" width="18" height="64" rx="4"/>
      <rect x="944" y="184" width="18" height="52" rx="4"/>
      <rect x="976" y="148" width="18" height="88" rx="4"/>
      <rect x="1008" y="160" width="18" height="76" rx="4"/>
      <rect x="1040" y="124" width="18" height="112" rx="4"/>
      <rect x="1072" y="140" width="18" height="96" rx="4"/>
      <rect x="1104" y="96" width="18" height="140" rx="4"/>
    </g>
    <polyline points="889,196 921,172 953,184 985,148 1017,160 1049,124 1081,140 1113,96"
      fill="none" stroke="#58A6FF" stroke-width="2" stroke-linecap="round" stroke-linejoin="round" opacity="0.85"/>
    <g fill="#0D1117" stroke="#58A6FF" stroke-width="2">
      <circle cx="889" cy="196" r="3.5"/>
      <circle cx="921" cy="172" r="3.5"/>
      <circle cx="953" cy="184" r="3.5"/>
      <circle cx="985" cy="148" r="3.5"/>
      <circle cx="1017" cy="160" r="3.5"/>
      <circle cx="1049" cy="124" r="3.5"/>
      <circle cx="1081" cy="140" r="3.5"/>
    </g>
    <circle cx="1113" cy="96" r="5" fill="#58A6FF"/>
  </g>
</svg>
